<svg width="300" height="300" viewBox="0 0 300 300" fill="none" xmlns="http://www.w3.org/2000/svg">
<circle cx="150" cy="150" r="150" fill="#F8C950"/>
<circle cx="150.949" cy="150.949" r="116.772" fill="#FAD472"/>
<path d="M147.139 225.446V74.6525H156.8V225.446H147.139ZM172.763 124.426C172.291 119.675 170.269 115.983 166.695 113.352C163.122 110.721 158.272 109.406 152.146 109.406C147.984 109.406 144.469 109.995 141.602 111.173C138.736 112.312 136.537 113.902 135.005 115.944C133.513 117.986 132.767 120.303 132.767 122.895C132.688 125.055 133.14 126.94 134.122 128.55C135.143 130.16 136.537 131.554 138.304 132.732C140.071 133.871 142.113 134.872 144.43 135.736C146.747 136.56 149.221 137.267 151.852 137.856L162.69 140.448C167.952 141.626 172.782 143.197 177.18 145.16C181.579 147.124 185.388 149.539 188.608 152.406C191.828 155.272 194.321 158.649 196.089 162.537C197.895 166.425 198.818 170.882 198.857 175.908C198.818 183.291 196.933 189.692 193.202 195.111C189.511 200.491 184.17 204.673 177.18 207.658C170.23 210.603 161.846 212.075 152.028 212.075C142.29 212.075 133.807 210.583 126.582 207.599C119.396 204.614 113.78 200.196 109.735 194.345C105.73 188.455 103.629 181.17 103.433 172.492H128.113C128.388 176.537 129.547 179.914 131.589 182.623C133.67 185.294 136.439 187.316 139.894 188.69C143.389 190.026 147.336 190.693 151.734 190.693C156.054 190.693 159.804 190.065 162.985 188.808C166.205 187.552 168.698 185.804 170.465 183.566C172.232 181.327 173.116 178.755 173.116 175.849C173.116 173.14 172.311 170.862 170.701 169.017C169.13 167.171 166.813 165.6 163.75 164.304C160.727 163.008 157.016 161.83 152.617 160.77L139.482 157.471C129.311 154.997 121.281 151.129 115.39 145.867C109.5 140.605 106.574 133.517 106.613 124.603C106.574 117.299 108.518 110.918 112.445 105.459C116.411 100.001 121.85 95.7401 128.761 92.6771C135.673 89.6141 143.527 88.0826 152.323 88.0826C161.276 88.0826 169.091 89.6141 175.767 92.6771C182.482 95.7401 187.705 100.001 191.435 105.459C195.166 110.918 197.09 117.24 197.208 124.426H172.763Z" fill="#F8C950"/>
</svg>
